<svg xmlns="http://www.w3.org/2000/svg"><defs><g id="head" transform="translate(-100 -80)">
 <path fill="#efe8da" d="M44 84C44 50 70 26 100 26S156 50 156 84C156 114 130 132 100 132S44 114 44 84Z"/><path fill="#57483c" d="M44 84C44 50 70 26 100 26S156 50 156 84C156 96 154 104 150 112C147 99 144 93 143 88C143 68 124 54 100 54S57 68 57 88C56 93 53 99 50 112C46 104 44 96 44 84Z"/><path d="M60 52Q100 22 140 52" fill="none" stroke="#7a6b5d" stroke-width="5" stroke-linecap="round" opacity=".7"/><path fill="none" stroke="#2b241f" stroke-width="4" d="M44 84C44 50 70 26 100 26S156 50 156 84C156 114 130 132 100 132S44 114 44 84Z"/>
 <path d="M86 64l-2 6M100 61v7M114 64l2 6" stroke="#d9cfbd" stroke-width="2.2" stroke-linecap="round"/>
 <path fill="#e5cd8c" d="M66 104C68 94 80 92 90 94Q100 100 110 94C120 92 132 94 134 104C134 117 118 126 100 126S66 117 66 104Z"/>
 <path fill="#21180f" d="M93 86C90 79 82 76 75 78C67 81 63 90 64 99C65 107 67 113 71 117C71 108 72 101 76 97C82 94 88 93 93 86ZM107 86C110 79 118 76 125 78C133 81 137 90 136 99C135 107 133 113 129 117C129 108 128 101 124 97C118 94 112 93 107 86Z"/>
 <path fill="#21180f" d="M87 97C87 90 113 90 113 97C113 104 106 108 100 108C94 108 87 104 87 97Z"/>
 <path d="M94 94q3-2 5 0M101 94q2-2 5 0" stroke="#5a4a40" stroke-width="1.6" fill="none" stroke-linecap="round"/>
 <path d="M100 107v4M79 109Q100 121 121 109" fill="none" stroke="#21180f" stroke-width="3" stroke-linecap="round"/>
</g>
<g id="eyes-open" transform="translate(-100 -80)"><circle cx="80" cy="87" r="6.2" fill="#b8722b"/><circle cx="120" cy="87" r="6.2" fill="#b8722b"/><circle cx="80.6" cy="87.4" r="3.2" fill="#120c08"/><circle cx="119.4" cy="87.4" r="3.2" fill="#120c08"/><circle cx="82.2" cy="85.6" r="1.3" fill="#fff"/><circle cx="121" cy="85.6" r="1.3" fill="#fff"/><path d="M72.5 83.6h15M112.5 83.6h15" stroke="#21180f" stroke-width="3.4"/></g>
<g id="eyes-lidded" transform="translate(-100 -80)"><use href="#eyes-open" transform="translate(100 80)"/><path d="M73 87.4a7 7 0 0 1 14 0zM113 87.4a7 7 0 0 1 14 0z" fill="#21180f"/></g></defs>
<symbol id="station" viewBox="0 0 560 300"><g fill="none" stroke="currentColor" stroke-width="3"><path d="M20 80H540M45 80L100 26H460L515 80M100 26L156 80L212 26L268 80L324 26L380 80L436 26M50 82V258M510 82V258M85 100V258M475 100V258M40 260H520M30 275H530M15 294H545"/><path d="M85 120Q280 225 475 120" stroke-width="2"/></g><g fill="var(--station-light,#df9c37)"><circle cx="122" cy="137" r="6"/><circle cx="177" cy="157" r="6"/><circle cx="235" cy="170" r="6"/><circle cx="295" cy="174" r="6"/><circle cx="354" cy="165" r="6"/><circle cx="409" cy="146" r="6"/></g><g fill="currentColor"><rect x="124" y="194" width="86" height="65"/><rect x="232" y="222" width="96" height="37"/><rect x="350" y="186" width="80" height="73"/></g><g fill="var(--poster-paper,#eed9b8)" font-family="sans-serif" font-weight="700" font-size="24" text-anchor="middle"><text x="167" y="236">01</text><text x="280" y="250">02</text><text x="390" y="230">03</text></g><g stroke="currentColor" stroke-width="2"><path d="M85 275l-20 19M155 275l-16 19M225 275l-8 19M295 275v19M365 275l8 19M435 275l16 19M505 275l20 19"/></g></symbol>
<symbol id="stage-manager" viewBox="0 0 300 300"><ellipse cx="148" cy="283" rx="104" ry="9" fill="#253b36" opacity=".12"/><path d="M88 276C78 201 97 157 122 148H176C208 166 222 208 213 276Z" fill="#8f7d69" stroke="#2b241f" stroke-width="4"/><path d="M106 154L138 178L159 177L194 154L211 269H87Z" fill="#d6813c" stroke="#2b241f" stroke-width="4"/><path d="M142 178L140 266M98 220L142 224L204 216" fill="none" stroke="#f5e9ce" stroke-width="8"/><path d="M104 268L90 282H129L145 269M174 268L166 282H207L198 267" fill="#57483c" stroke="#2b241f" stroke-width="4"/><g transform="translate(152 110) rotate(-5)"><use href="#head"/><use href="#eyes-open"/></g><path d="M95 109C80 37 217 32 212 111" fill="none" stroke="var(--crew-gear,#253b36)" stroke-width="11"/><rect x="86" y="93" width="15" height="34" rx="7" fill="var(--crew-gear,#253b36)"/><rect x="205" y="92" width="15" height="35" rx="7" fill="var(--crew-gear,#253b36)"/><path d="M211 123Q203 148 171 144" fill="none" stroke="var(--crew-gear,#253b36)" stroke-width="5"/><rect x="161" y="139" width="18" height="9" rx="4" fill="var(--crew-gear,#253b36)"/><path d="M119 164L141 196L164 166" fill="none" stroke="#253b36" stroke-width="3"/><rect x="128" y="192" width="27" height="32" rx="2" fill="#f5e9ce" stroke="#253b36" stroke-width="2"/><text x="141" y="213" text-anchor="middle" font-family="sans-serif" font-weight="700" font-size="8" fill="#253b36">CREW</text><g transform="rotate(-10 80 224)"><rect x="33" y="179" width="86" height="99" rx="4" fill="#eed9b8" stroke="#2b241f" stroke-width="4"/><rect x="62" y="173" width="28" height="14" rx="3" fill="var(--crew-gear,#253b36)"/><g stroke="#253b36" stroke-width="3"><path d="M48 204H105M48 222H102M48 240H101M48 258H91"/></g></g><path d="M109 177Q83 174 81 215M194 180Q244 201 221 240" fill="none" stroke="#2b241f" stroke-width="23" stroke-linecap="round"/><path d="M109 177Q83 174 81 215M194 180Q244 201 221 240" fill="none" stroke="#8f7d69" stroke-width="15" stroke-linecap="round"/><g stroke="#e5cd8c" stroke-width="5" stroke-linecap="round"><path d="M77 211L77 224M83 212L84 224M89 211L91 222M215 238L210 249M222 239L217 251M228 241L224 253"/></g></symbol></svg>