<svg xmlns="http://www.w3.org/2000/svg"><symbol id="shop-logo" viewBox="0 0 64 64"><circle cx="32" cy="32" r="22" fill="none" style="stroke:currentColor" stroke-width="5"/><g style="stroke:currentColor"><path d="M32 32L51.1 37.9" stroke="currentColor" stroke-width="3" stroke-linecap="round"/><path d="M32 32L36.4 51.5" stroke="currentColor" stroke-width="3" stroke-linecap="round"/><path d="M32 32L17.3 45.6" stroke="currentColor" stroke-width="3" stroke-linecap="round"/><path d="M32 32L12.9 26.1" stroke="currentColor" stroke-width="3" stroke-linecap="round"/><path d="M32 32L27.6 12.5" stroke="currentColor" stroke-width="3" stroke-linecap="round"/><path d="M32 32L46.7 18.4" stroke="currentColor" stroke-width="3" stroke-linecap="round"/></g><circle cx="52" cy="50" r="3.2" style="fill:currentColor"/><circle cx="57" cy="42" r="2.2" style="fill:currentColor"/><circle cx="46" cy="57" r="1.8" style="fill:currentColor"/></symbol><symbol id="cam-front" viewBox="0 0 400 280">
<ellipse cx="200" cy="246" rx="160" ry="10" fill="#000" opacity=".12"/>
<rect x="232" y="70" width="38" height="14" rx="4" style="fill:var(--cam-plate,#c9ccd1)" stroke="#1b1d20" stroke-width="3" stroke-linejoin="round"/><rect x="282" y="66" width="34" height="18" rx="7" style="fill:var(--cam-plate,#c9ccd1)" stroke="#1b1d20" stroke-width="3" stroke-linejoin="round"/>
<rect x="40" y="80" width="320" height="150" rx="22" style="fill:var(--cam-body,#3a3d42)" stroke="#1b1d20" stroke-width="3" stroke-linejoin="round"/><rect x="42" y="114" width="316" height="96" style="fill:color-mix(in srgb, var(--cam-body,#3a3d42) 72%, #000)"/><path d="M62 80h276a22 22 0 0 1 22 22v12H40v-12a22 22 0 0 1 22-22z" style="fill:var(--cam-plate,#c9ccd1)" stroke="#1b1d20" stroke-width="3" stroke-linejoin="round"/>
<path d="M318 114h40v96h-40q-12-48 0-96z" style="fill:var(--cam-body,#3a3d42)" opacity=".9"/>
<text x="62" y="103" font-family="system-ui,sans-serif" font-size="12" font-weight="700" letter-spacing="3" fill="#2b2e33">CRUMB</text>
<circle cx="336" cy="128" r="5" fill="#e0a24a" stroke="#1b1d20" stroke-width="2"/>
<circle cx="165" cy="168" r="70.0" fill="#1b1d20"/><circle cx="165" cy="168" r="60.0" fill="#2b2e33"/><path d="M217.0 168.0L223.0 168.0" stroke="#6b7078" stroke-width="2.0"/><path d="M216.2 177.0L222.1 178.1" stroke="#6b7078" stroke-width="2.0"/><path d="M213.9 185.8L219.5 187.8" stroke="#6b7078" stroke-width="2.0"/><path d="M210.0 194.0L215.2 197.0" stroke="#6b7078" stroke-width="2.0"/><path d="M204.8 201.4L209.4 205.3" stroke="#6b7078" stroke-width="2.0"/><path d="M198.4 207.8L202.3 212.4" stroke="#6b7078" stroke-width="2.0"/><path d="M191.0 213.0L194.0 218.2" stroke="#6b7078" stroke-width="2.0"/><path d="M182.8 216.9L184.8 222.5" stroke="#6b7078" stroke-width="2.0"/><path d="M174.0 219.2L175.1 225.1" stroke="#6b7078" stroke-width="2.0"/><path d="M165.0 220.0L165.0 226.0" stroke="#6b7078" stroke-width="2.0"/><path d="M156.0 219.2L154.9 225.1" stroke="#6b7078" stroke-width="2.0"/><path d="M147.2 216.9L145.2 222.5" stroke="#6b7078" stroke-width="2.0"/><path d="M139.0 213.0L136.0 218.2" stroke="#6b7078" stroke-width="2.0"/><path d="M131.6 207.8L127.7 212.4" stroke="#6b7078" stroke-width="2.0"/><path d="M125.2 201.4L120.6 205.3" stroke="#6b7078" stroke-width="2.0"/><path d="M120.0 194.0L114.8 197.0" stroke="#6b7078" stroke-width="2.0"/><path d="M116.1 185.8L110.5 187.8" stroke="#6b7078" stroke-width="2.0"/><path d="M113.8 177.0L107.9 178.1" stroke="#6b7078" stroke-width="2.0"/><path d="M113.0 168.0L107.0 168.0" stroke="#6b7078" stroke-width="2.0"/><path d="M113.8 159.0L107.9 157.9" stroke="#6b7078" stroke-width="2.0"/><path d="M116.1 150.2L110.5 148.2" stroke="#6b7078" stroke-width="2.0"/><path d="M120.0 142.0L114.8 139.0" stroke="#6b7078" stroke-width="2.0"/><path d="M125.2 134.6L120.6 130.7" stroke="#6b7078" stroke-width="2.0"/><path d="M131.6 128.2L127.7 123.6" stroke="#6b7078" stroke-width="2.0"/><path d="M139.0 123.0L136.0 117.8" stroke="#6b7078" stroke-width="2.0"/><path d="M147.2 119.1L145.2 113.5" stroke="#6b7078" stroke-width="2.0"/><path d="M156.0 116.8L154.9 110.9" stroke="#6b7078" stroke-width="2.0"/><path d="M165.0 116.0L165.0 110.0" stroke="#6b7078" stroke-width="2.0"/><path d="M174.0 116.8L175.1 110.9" stroke="#6b7078" stroke-width="2.0"/><path d="M182.8 119.1L184.8 113.5" stroke="#6b7078" stroke-width="2.0"/><path d="M191.0 123.0L194.0 117.8" stroke="#6b7078" stroke-width="2.0"/><path d="M198.4 128.2L202.3 123.6" stroke="#6b7078" stroke-width="2.0"/><path d="M204.8 134.6L209.4 130.7" stroke="#6b7078" stroke-width="2.0"/><path d="M210.0 142.0L215.2 139.0" stroke="#6b7078" stroke-width="2.0"/><path d="M213.9 150.2L219.5 148.2" stroke="#6b7078" stroke-width="2.0"/><path d="M216.2 159.0L222.1 157.9" stroke="#6b7078" stroke-width="2.0"/><circle cx="165" cy="168" r="46.0" fill="#3b3f45"/><circle cx="165" cy="168" r="36.0" fill="#16222f"/><circle cx="165" cy="168" r="22.0" fill="#24405a"/><circle cx="165" cy="168" r="10.0" fill="#0d141c"/><path d="M139.0 156.0A28.0 28.0 0 0 1 159.0 141.0" fill="none" stroke="#fff" stroke-width="4.0" stroke-linecap="round" opacity=".55"/><circle cx="179.0" cy="180.0" r="3.0" fill="#fff" opacity=".35"/></symbol><symbol id="cam-back" viewBox="0 0 400 280">
<ellipse cx="200" cy="246" rx="160" ry="10" fill="#000" opacity=".12"/>
<rect x="232" y="70" width="38" height="14" rx="4" style="fill:var(--cam-plate,#c9ccd1)" stroke="#1b1d20" stroke-width="3" stroke-linejoin="round"/><rect x="282" y="66" width="34" height="18" rx="7" style="fill:var(--cam-plate,#c9ccd1)" stroke="#1b1d20" stroke-width="3" stroke-linejoin="round"/>
<rect x="40" y="80" width="320" height="150" rx="22" style="fill:var(--cam-body,#3a3d42)" stroke="#1b1d20" stroke-width="3" stroke-linejoin="round"/><path d="M62 80h276a22 22 0 0 1 22 22v12H40v-12a22 22 0 0 1 22-22z" style="fill:var(--cam-plate,#c9ccd1)" stroke="#1b1d20" stroke-width="3" stroke-linejoin="round"/>
<rect x="66" y="122" width="196" height="96" rx="6" fill="#12161c" stroke="#1b1d20" stroke-width="3"/>
<rect x="74" y="130" width="180" height="80" rx="3" fill="#2a3a4c"/>
<path d="M74 180q40-30 90-6t90-14v50H74z" fill="#3f5a6e"/><circle cx="214" cy="150" r="10" fill="#e8c46a" opacity=".8"/>
<path d="M140 150h-8v-8M188 150h8v-8M140 186h-8v8M188 186h8v8" stroke="#fff" stroke-width="2.4" fill="none"/>
<circle cx="306" cy="138" r="10" style="fill:var(--cam-plate,#c9ccd1)" stroke="#1b1d20" stroke-width="3" stroke-linejoin="round"/><circle cx="306" cy="190" r="22" fill="#2b2e33" stroke="#1b1d20" stroke-width="3"/><circle cx="306" cy="190" r="11" style="fill:var(--cam-plate,#c9ccd1)" stroke="#1b1d20" stroke-width="3" stroke-linejoin="round"/>
<text x="62" y="103" font-family="system-ui,sans-serif" font-size="12" font-weight="700" letter-spacing="3" fill="#2b2e33">MENU</text></symbol><symbol id="cam-top" viewBox="0 0 400 280">
<rect x="110" y="176" width="112" height="58" rx="8" fill="#2b2e33" stroke="#1b1d20" stroke-width="3"/><rect x="110" y="214" width="112" height="20" rx="6" fill="#1b1d20"/>
<rect x="40" y="104" width="320" height="76" rx="26" style="fill:var(--cam-plate,#c9ccd1)" stroke="#1b1d20" stroke-width="3" stroke-linejoin="round"/>
<rect x="40" y="150" width="320" height="30" rx="14" style="fill:var(--cam-body,#3a3d42)" opacity=".9"/>
<circle cx="110" cy="138" r="20" fill="#a7abb1" stroke="#1b1d20" stroke-width="3" stroke-linejoin="round"/><text x="110" y="143" text-anchor="middle" font-family="system-ui,sans-serif" font-size="13" font-weight="700" fill="#1b1d20">A</text>
<circle cx="250" cy="145" r="24" fill="#b6bac0" stroke="#1b1d20" stroke-width="3" stroke-linejoin="round"/><path d="M266.0 145.0L271.0 145.0" stroke="#1b1d20" stroke-width="2"/><path d="M264.8 151.1L269.4 153.0" stroke="#1b1d20" stroke-width="2"/><path d="M261.3 156.3L264.8 159.8" stroke="#1b1d20" stroke-width="2"/><path d="M256.1 159.8L258.0 164.4" stroke="#1b1d20" stroke-width="2"/><path d="M250.0 161.0L250.0 166.0" stroke="#1b1d20" stroke-width="2"/><path d="M243.9 159.8L242.0 164.4" stroke="#1b1d20" stroke-width="2"/><path d="M238.7 156.3L235.2 159.8" stroke="#1b1d20" stroke-width="2"/><path d="M235.2 151.1L230.6 153.0" stroke="#1b1d20" stroke-width="2"/><path d="M234.0 145.0L229.0 145.0" stroke="#1b1d20" stroke-width="2"/><path d="M235.2 138.9L230.6 137.0" stroke="#1b1d20" stroke-width="2"/><path d="M238.7 133.7L235.2 130.2" stroke="#1b1d20" stroke-width="2"/><path d="M243.9 130.2L242.0 125.6" stroke="#1b1d20" stroke-width="2"/><path d="M250.0 129.0L250.0 124.0" stroke="#1b1d20" stroke-width="2"/><path d="M256.1 130.2L258.0 125.6" stroke="#1b1d20" stroke-width="2"/><path d="M261.3 133.7L264.8 130.2" stroke="#1b1d20" stroke-width="2"/><path d="M264.8 138.9L269.4 137.0" stroke="#1b1d20" stroke-width="2"/><circle cx="250" cy="145" r="9" fill="#8d9298"/>
<circle cx="310" cy="134" r="12" fill="#e9ebee" stroke="#1b1d20" stroke-width="3" stroke-linejoin="round"/><circle cx="310" cy="134" r="5" fill="#c9ccd1"/></symbol><symbol id="cam-lens" viewBox="0 0 400 280"><circle cx="200" cy="140" r="118.0" fill="#1b1d20"/><circle cx="200" cy="140" r="101.1" fill="#2b2e33"/><path d="M287.7 140.0L297.8 140.0" stroke="#6b7078" stroke-width="3.4"/><path d="M286.3 155.2L296.3 157.0" stroke="#6b7078" stroke-width="3.4"/><path d="M282.4 170.0L291.9 173.4" stroke="#6b7078" stroke-width="3.4"/><path d="M275.9 183.8L284.7 188.9" stroke="#6b7078" stroke-width="3.4"/><path d="M267.1 196.3L274.9 202.8" stroke="#6b7078" stroke-width="3.4"/><path d="M256.3 207.1L262.8 214.9" stroke="#6b7078" stroke-width="3.4"/><path d="M243.8 215.9L248.9 224.7" stroke="#6b7078" stroke-width="3.4"/><path d="M230.0 222.4L233.4 231.9" stroke="#6b7078" stroke-width="3.4"/><path d="M215.2 226.3L217.0 236.3" stroke="#6b7078" stroke-width="3.4"/><path d="M200.0 227.7L200.0 237.8" stroke="#6b7078" stroke-width="3.4"/><path d="M184.8 226.3L183.0 236.3" stroke="#6b7078" stroke-width="3.4"/><path d="M170.0 222.4L166.6 231.9" stroke="#6b7078" stroke-width="3.4"/><path d="M156.2 215.9L151.1 224.7" stroke="#6b7078" stroke-width="3.4"/><path d="M143.7 207.1L137.2 214.9" stroke="#6b7078" stroke-width="3.4"/><path d="M132.9 196.3L125.1 202.8" stroke="#6b7078" stroke-width="3.4"/><path d="M124.1 183.8L115.3 188.9" stroke="#6b7078" stroke-width="3.4"/><path d="M117.6 170.0L108.1 173.4" stroke="#6b7078" stroke-width="3.4"/><path d="M113.7 155.2L103.7 157.0" stroke="#6b7078" stroke-width="3.4"/><path d="M112.3 140.0L102.2 140.0" stroke="#6b7078" stroke-width="3.4"/><path d="M113.7 124.8L103.7 123.0" stroke="#6b7078" stroke-width="3.4"/><path d="M117.6 110.0L108.1 106.6" stroke="#6b7078" stroke-width="3.4"/><path d="M124.1 96.2L115.3 91.1" stroke="#6b7078" stroke-width="3.4"/><path d="M132.9 83.7L125.1 77.2" stroke="#6b7078" stroke-width="3.4"/><path d="M143.7 72.9L137.2 65.1" stroke="#6b7078" stroke-width="3.4"/><path d="M156.2 64.1L151.1 55.3" stroke="#6b7078" stroke-width="3.4"/><path d="M170.0 57.6L166.6 48.1" stroke="#6b7078" stroke-width="3.4"/><path d="M184.8 53.7L183.0 43.7" stroke="#6b7078" stroke-width="3.4"/><path d="M200.0 52.3L200.0 42.2" stroke="#6b7078" stroke-width="3.4"/><path d="M215.2 53.7L217.0 43.7" stroke="#6b7078" stroke-width="3.4"/><path d="M230.0 57.6L233.4 48.1" stroke="#6b7078" stroke-width="3.4"/><path d="M243.8 64.1L248.9 55.3" stroke="#6b7078" stroke-width="3.4"/><path d="M256.3 72.9L262.8 65.1" stroke="#6b7078" stroke-width="3.4"/><path d="M267.1 83.7L274.9 77.2" stroke="#6b7078" stroke-width="3.4"/><path d="M275.9 96.2L284.7 91.1" stroke="#6b7078" stroke-width="3.4"/><path d="M282.4 110.0L291.9 106.6" stroke="#6b7078" stroke-width="3.4"/><path d="M286.3 124.8L296.3 123.0" stroke="#6b7078" stroke-width="3.4"/><circle cx="200" cy="140" r="77.5" fill="#3b3f45"/><circle cx="200" cy="140" r="60.7" fill="#16222f"/><circle cx="200" cy="140" r="37.1" fill="#24405a"/><circle cx="200" cy="140" r="16.9" fill="#0d141c"/><path d="M156.2 119.8A47.2 47.2 0 0 1 189.9 94.5" fill="none" stroke="#fff" stroke-width="6.7" stroke-linecap="round" opacity=".55"/><circle cx="223.6" cy="160.2" r="5.1" fill="#fff" opacity=".35"/>
<text x="200" y="272" text-anchor="middle" font-family="system-ui,sans-serif" font-size="14" letter-spacing="2" fill="#6b7078">35 mm  1 : 2</text></symbol><symbol id="acc-strap" viewBox="0 0 120 90"><path d="M14 70C20 20 100 20 106 70" fill="none" stroke="#7a4f2a" stroke-width="12" stroke-linecap="round"/><path d="M14 70C20 20 100 20 106 70" fill="none" stroke="#b07a46" stroke-width="7" stroke-linecap="round" stroke-dasharray="1 7"/><rect x="6" y="66" width="16" height="12" rx="3" fill="#c9ccd1" stroke="#1b1d20" stroke-width="2"/><rect x="98" y="66" width="16" height="12" rx="3" fill="#c9ccd1" stroke="#1b1d20" stroke-width="2"/></symbol><symbol id="acc-battery" viewBox="0 0 120 90"><rect x="22" y="20" width="76" height="52" rx="6" fill="#2b2e33" stroke="#1b1d20" stroke-width="3"/><rect x="36" y="14" width="14" height="8" rx="2" fill="#c9ccd1"/><rect x="70" y="14" width="14" height="8" rx="2" fill="#c9ccd1"/><path d="M58 32l-8 16h10l-6 14 14-20h-10l6-10z" fill="#e8c46a"/></symbol><symbol id="acc-tripod" viewBox="0 0 120 90"><rect x="44" y="6" width="32" height="12" rx="3" fill="#2b2e33"/><path d="M60 18v18M60 36L28 86M60 36l32 50M60 36v50" stroke="#2b2e33" stroke-width="5" stroke-linecap="round"/><rect x="54" y="30" width="12" height="10" rx="2" fill="#c9ccd1" stroke="#1b1d20" stroke-width="2"/></symbol></svg>