<svg xmlns="http://www.w3.org/2000/svg"><defs>
<g id="head" transform="translate(-100 -78)">
 <path fill="#a88d72" stroke="#2f2a27" stroke-width="4" d="M48 78c0-30 23-50 52-50s52 20 52 50-21 44-52 44-52-14-52-44z"/>
 <path d="M86 31c4-9 10-11 14-4 4-7 11-6 13 3" fill="#a88d72" stroke="#2f2a27" stroke-width="4" stroke-linecap="round"/>
 <ellipse fill="#eadcc4" cx="100" cy="86" rx="41" ry="30"/>
 <path fill="#4b3b30" d="M60 78q12-12 30-2q-2 9-12 10q-12 1-18-8zM140 78q-12-12-30-2q2 9 12 10q12 1 18-8z"/>
 <ellipse cx="100" cy="97" rx="8" ry="5.5" fill="#2f2a27"/>
 <path d="M91 107q9 6 18 0" fill="none" stroke="#2f2a27" stroke-width="3.5" stroke-linecap="round"/>
</g>
<g id="eyes-open" transform="translate(-100 -78)"><circle cx="81" cy="80" r="4.2" fill="#15110e"/><circle cx="119" cy="80" r="4.2" fill="#15110e"/><circle cx="82.5" cy="78.5" r="1.4" fill="#fff"/><circle cx="120.5" cy="78.5" r="1.4" fill="#fff"/></g>
<g id="eyes-lidded" transform="translate(-100 -78)"><path d="M76 81a5 5 0 0 0 10 0zM114 81a5 5 0 0 0 10 0z" fill="#15110e"/><path d="M75 81h12M113 81h12" stroke="#15110e" stroke-width="2.4" stroke-linecap="round"/></g>
<g id="eyes-sus" transform="translate(-100 -78)"><path d="M76 81a5 5 0 0 0 10 0z" fill="#15110e"/><path d="M75 81h12" stroke="#15110e" stroke-width="2.4" stroke-linecap="round"/><circle cx="119" cy="80" r="4.6" fill="#15110e"/><circle cx="120.5" cy="78.5" r="1.4" fill="#fff"/><path d="M111 68q8-5 16 1" stroke="#2f2a27" stroke-width="3" fill="none" stroke-linecap="round"/></g>
</defs><symbol id="logo" viewBox="0 0 64 64">
<circle cx="26" cy="26" r="17" fill="none" style="stroke:currentColor" stroke-width="5"/>
<path d="M38 38l14 14" style="stroke:currentColor" stroke-width="6" stroke-linecap="round"/>
<path d="M56 51q4-7-1-12q1 6-4 8q2 3 5 4z" style="fill:var(--stamp,#e0675e)"/>
<path d="M18 24q2-7 9-8" fill="none" style="stroke:currentColor" stroke-width="2.5" stroke-linecap="round" opacity=".6"/>
</symbol><symbol id="window" viewBox="0 -10 400 510">
<path d="M28 482V170a172 172 0 0 1 344 0v312z" style="fill:var(--sky,#1c2a40)"/>
<circle cx="292" cy="236" r="30" style="fill:var(--lit,#e8c46a)" opacity=".85"/>
<g style="fill:var(--night,#0d131d)"><path d="M70 214q46-24 104 0q-52 22-104 0z"/><path d="M110 224h22v8h-22z"/><path d="M64 206l-10-10v26z"/></g>
<g style="fill:var(--city,#0b111b)"><path d="M30 480V348h11v-10h11v-8h17v8h11v10h11V480z"/><path d="M86 480V298h8v-10h8v-8h13v8h8v10h8V480z"/><path d="M128 480V368h7v-10h7v-8h11v8h7v10h7V480z"/><path d="M166 480V258h9v-10h9v-8h15v8h9v10h9V480z"/><path d="M214 480V318h8v-10h8v-8h12v8h8v10h8V480z"/><path d="M256 480V280h10v-10h10v-8h16v8h10v10h10V480z"/><path d="M312 480V338h10v-10h10v-8h15v8h10v10h10V480z"/></g>
<g style="fill:var(--lit,#e8c46a)" opacity=".8"><rect x="45" y="364" width="8" height="7"/><rect x="64" y="364" width="8" height="7"/><rect x="45" y="430" width="8" height="7"/><rect x="64" y="430" width="8" height="7"/><rect x="45" y="452" width="8" height="7"/><rect x="64" y="452" width="8" height="7"/><rect x="112" y="314" width="6" height="7"/><rect x="98" y="336" width="6" height="7"/><rect x="112" y="358" width="6" height="7"/><rect x="112" y="380" width="6" height="7"/><rect x="98" y="446" width="6" height="7"/><rect x="112" y="446" width="6" height="7"/><rect x="98" y="468" width="6" height="7"/><rect x="138" y="406" width="6" height="7"/><rect x="151" y="406" width="6" height="7"/><rect x="179" y="296" width="7" height="7"/><rect x="179" y="318" width="7" height="7"/><rect x="196" y="318" width="7" height="7"/><rect x="179" y="340" width="7" height="7"/><rect x="196" y="340" width="7" height="7"/><rect x="179" y="362" width="7" height="7"/><rect x="196" y="428" width="7" height="7"/><rect x="179" y="450" width="7" height="7"/><rect x="196" y="450" width="7" height="7"/><rect x="225" y="334" width="6" height="7"/><rect x="239" y="334" width="6" height="7"/><rect x="225" y="422" width="6" height="7"/><rect x="270" y="296" width="8" height="7"/><rect x="270" y="318" width="8" height="7"/><rect x="289" y="384" width="8" height="7"/><rect x="270" y="406" width="8" height="7"/><rect x="289" y="406" width="8" height="7"/><rect x="270" y="450" width="8" height="7"/><rect x="326" y="376" width="8" height="7"/><rect x="326" y="398" width="8" height="7"/><rect x="343" y="398" width="8" height="7"/></g>
<g style="stroke:var(--rain,#8fa8bc)" stroke-width="1.6" stroke-linecap="round" opacity=".55" fill="none"><path d="M142 216l-6 16 M250 195l-6 16 M212 273l-6 16 M53 310l-6 16 M46 290l-6 16 M57 200l-6 16 M175 394l-6 16 M75 235l-6 16 M242 426l-6 16 M226 281l-6 16 M358 188l-6 16 M319 252l-6 16 M82 207l-6 16 M136 391l-6 16 M94 330l-6 16 M246 274l-6 16 M216 193l-6 16 M54 230l-6 16 M260 289l-6 16 M138 331l-6 16 M184 255l-6 16 M298 361l-6 16 M115 328l-6 16 M208 407l-6 16 M276 252l-6 16 M359 207l-6 16 M173 376l-6 16 M84 305l-6 16 M47 352l-6 16 M288 327l-6 16 M325 259l-6 16 M265 333l-6 16 M227 296l-6 16 M313 425l-6 16 M191 351l-6 16 M54 361l-6 16 M249 438l-6 16 M307 251l-6 16 M162 353l-6 16 M41 298l-6 16 M90 207l-6 16 M54 379l-6 16 M77 241l-6 16 M164 406l-6 16 M61 295l-6 16 M216 409l-6 16 M306 404l-6 16 M126 286l-6 16 M153 409l-6 16 M352 216l-6 16 M93 237l-6 16 M111 304l-6 16 M230 245l-6 16 M35 287l-6 16 M157 326l-6 16 M350 358l-6 16 M205 339l-6 16 M258 190l-6 16 M333 382l-6 16 M324 387l-6 16 M164 281l-6 16 M68 343l-6 16 M55 194l-6 16 M103 219l-6 16 M147 190l-6 16 M34 216l-6 16 M68 272l-6 16 M42 407l-6 16 M238 215l-6 16 M118 268l-6 16"/></g>
<g style="stroke:var(--brass,#c9993d)" fill="none" stroke-width="4"><path d="M200 170L352 107"/><path d="M200 170L317 53"/><path d="M200 170L263 18"/><path d="M200 170L200 5"/><path d="M200 170L137 18"/><path d="M200 170L83 53"/><path d="M200 170L48 107"/><path d="M150 170a50 50 0 0 1 100 0"/></g>
<g style="stroke:var(--brass,#c9993d)" fill="none"><path d="M28 482V170a172 172 0 0 1 344 0v312" stroke-width="14"/><path d="M200 170v312M28 170h344M28 330h344" stroke-width="8"/></g>
<rect x="8" y="478" width="384" height="18" rx="3" style="fill:var(--brass-dark,#7d5c1d)"/>
</symbol><symbol id="sloth-draped" viewBox="24 60 204 184"><path d="M60 146q-18 20-16 60" fill="none" stroke="#2f2a27" stroke-width="27" stroke-linecap="round" stroke-linejoin="round"/><path d="M60 146q-18 20-16 60" fill="none" stroke="#a88d72" stroke-width="19" stroke-linecap="round" stroke-linejoin="round"/><g transform="translate(44 210) rotate(0)"><path d="M-7 3l-3 9M0 5v10M7 3l3 9" stroke="#eadcc4" stroke-width="3.2" stroke-linecap="round" fill="none"/></g>
<path d="M44 147q0-39 70-39t72 39z" fill="#a88d72" stroke="#2f2a27" stroke-width="4" stroke-linejoin="round"/>
<path d="M150 146q4 30 0 70" fill="none" stroke="#2f2a27" stroke-width="27" stroke-linecap="round" stroke-linejoin="round"/><path d="M150 146q4 30 0 70" fill="none" stroke="#a88d72" stroke-width="19" stroke-linecap="round" stroke-linejoin="round"/><g transform="translate(150 220) rotate(0)"><path d="M-7 3l-3 9M0 5v10M7 3l3 9" stroke="#eadcc4" stroke-width="3.2" stroke-linecap="round" fill="none"/></g>
<path d="M176 146q10 28 10 62" fill="none" stroke="#2f2a27" stroke-width="27" stroke-linecap="round" stroke-linejoin="round"/><path d="M176 146q10 28 10 62" fill="none" stroke="#a88d72" stroke-width="19" stroke-linecap="round" stroke-linejoin="round"/><g transform="translate(186 212) rotate(0)"><path d="M-7 3l-3 9M0 5v10M7 3l3 9" stroke="#eadcc4" stroke-width="3.2" stroke-linecap="round" fill="none"/></g>
<g transform="translate(166 118) rotate(12) scale(0.85)"><use href="#head"/><use href="#eyes-lidded"/></g></symbol></svg>